<?xml version="1.0" encoding="UTF-8" standalone="no"?>
<!-- Generator: Adobe Illustrator 24.3.0, SVG Export Plug-In . SVG Version: 6.00 Build 0)  -->

<svg
   version="1.1"
   id="Layer_1"
   x="0px"
   y="0px"
   viewBox="0 0 129.244 129.244"
   enable-background="new 0 0 180 180"
   xml:space="preserve"
   sodipodi:docname="classroom.svg"
   width="129.244"
   height="129.244"
   inkscape:version="1.3.2 (091e20e, 2023-11-25)"
   xmlns:inkscape="http://www.inkscape.org/namespaces/inkscape"
   xmlns:sodipodi="http://sodipodi.sourceforge.net/DTD/sodipodi-0.dtd"
   xmlns="http://www.w3.org/2000/svg"
   xmlns:svg="http://www.w3.org/2000/svg"><defs
   id="defs124" /><sodipodi:namedview
   id="namedview124"
   pagecolor="#ffffff"
   bordercolor="#000000"
   borderopacity="0.25"
   inkscape:showpageshadow="2"
   inkscape:pageopacity="0.0"
   inkscape:pagecheckerboard="0"
   inkscape:deskcolor="#d1d1d1"
   inkscape:zoom="3.3111111"
   inkscape:cx="64.630872"
   inkscape:cy="64.479866"
   inkscape:window-width="2208"
   inkscape:window-height="942"
   inkscape:window-x="0"
   inkscape:window-y="25"
   inkscape:window-maximized="0"
   inkscape:current-layer="Layer_1" />
<g
   id="g124"
   transform="translate(-25.378,-25.378)">
	<g
   id="XMLID_220_">
		<path
   fill="#ffdb76"
   d="m 154.622,89.999 c 0,35.691 -28.933,64.623 -64.623,64.623 -35.689,0 -64.621,-28.932 -64.621,-64.623 0,-35.689 28.932,-64.621 64.621,-64.621 35.69,0 64.623,28.932 64.623,64.621 z"
   id="path1" />
	</g>
	<g
   id="g14">
		<g
   id="XMLID_219_">
			<path
   fill="#333333"
   d="m 90.937,136.181 c -0.208,0 -0.378,-0.167 -0.383,-0.376 -0.004,-0.213 0.164,-0.388 0.376,-0.392 0.635,-0.014 1.274,-0.039 1.902,-0.078 0.212,-0.016 0.394,0.148 0.406,0.36 0.014,0.212 -0.148,0.394 -0.359,0.406 -0.638,0.04 -1.289,0.066 -1.935,0.079 -0.002,0.001 -0.005,0.001 -0.007,0.001 z m -1.919,-0.001 c -0.003,0 -0.006,0 -0.008,0 -0.641,-0.014 -1.29,-0.04 -1.934,-0.081 -0.212,-0.013 -0.373,-0.195 -0.359,-0.406 0.014,-0.212 0.199,-0.374 0.406,-0.359 0.634,0.039 1.273,0.065 1.902,0.079 0.213,0.004 0.381,0.18 0.377,0.392 -0.005,0.208 -0.175,0.375 -0.384,0.375 z m 5.75,-0.236 c -0.195,0 -0.362,-0.146 -0.382,-0.344 -0.021,-0.211 0.132,-0.399 0.343,-0.421 0.63,-0.066 1.267,-0.146 1.889,-0.236 0.206,-0.03 0.404,0.115 0.435,0.325 0.031,0.209 -0.115,0.404 -0.324,0.436 -0.633,0.091 -1.279,0.173 -1.921,0.238 -0.014,0.002 -0.028,0.002 -0.04,0.002 z m -9.58,-0.004 c -0.014,0 -0.026,-0.001 -0.041,-0.003 -0.637,-0.065 -1.283,-0.146 -1.92,-0.24 -0.21,-0.03 -0.355,-0.226 -0.324,-0.436 0.031,-0.21 0.226,-0.357 0.436,-0.324 0.626,0.092 1.261,0.171 1.888,0.237 0.211,0.021 0.363,0.211 0.342,0.421 -0.021,0.199 -0.187,0.345 -0.381,0.345 z m 13.376,-0.549 c -0.18,0 -0.342,-0.129 -0.377,-0.312 -0.039,-0.209 0.098,-0.409 0.306,-0.449 0.622,-0.117 1.249,-0.249 1.862,-0.393 0.207,-0.049 0.414,0.081 0.462,0.287 0.048,0.206 -0.081,0.412 -0.287,0.461 -0.624,0.146 -1.261,0.28 -1.894,0.4 -0.024,0.004 -0.048,0.006 -0.072,0.006 z m -17.172,-0.009 c -0.024,0 -0.048,-0.002 -0.072,-0.007 -0.633,-0.12 -1.271,-0.255 -1.894,-0.401 -0.208,-0.048 -0.335,-0.256 -0.286,-0.462 0.048,-0.206 0.253,-0.335 0.461,-0.285 0.613,0.143 1.239,0.276 1.862,0.395 0.208,0.04 0.345,0.24 0.306,0.448 -0.037,0.185 -0.197,0.312 -0.377,0.312 z m 20.91,-0.862 c -0.167,0 -0.322,-0.111 -0.37,-0.281 -0.056,-0.204 0.064,-0.416 0.268,-0.473 0.61,-0.17 1.224,-0.355 1.822,-0.55 0.202,-0.065 0.419,0.047 0.483,0.247 0.067,0.201 -0.045,0.419 -0.246,0.483 -0.609,0.198 -1.233,0.386 -1.854,0.559 -0.034,0.01 -0.068,0.015 -0.103,0.015 z m -24.648,-0.013 c -0.033,0 -0.069,-0.004 -0.104,-0.014 -0.62,-0.173 -1.242,-0.361 -1.853,-0.559 -0.202,-0.066 -0.312,-0.282 -0.247,-0.483 0.065,-0.202 0.283,-0.312 0.484,-0.247 0.6,0.195 1.213,0.38 1.822,0.551 0.204,0.057 0.323,0.268 0.266,0.473 -0.045,0.168 -0.2,0.279 -0.368,0.279 z m 28.299,-1.172 c -0.156,0 -0.302,-0.096 -0.36,-0.25 -0.073,-0.198 0.028,-0.42 0.227,-0.493 0.59,-0.22 1.183,-0.454 1.765,-0.698 0.197,-0.083 0.421,0.01 0.503,0.204 0.082,0.196 -0.01,0.421 -0.205,0.504 -0.591,0.248 -1.195,0.487 -1.795,0.71 -0.045,0.016 -0.09,0.023 -0.135,0.023 z M 74,133.318 c -0.045,0 -0.09,-0.009 -0.134,-0.025 -0.604,-0.224 -1.21,-0.465 -1.804,-0.715 -0.195,-0.083 -0.287,-0.308 -0.205,-0.504 0.083,-0.194 0.307,-0.287 0.503,-0.204 0.585,0.246 1.182,0.483 1.772,0.704 0.199,0.074 0.301,0.295 0.227,0.494 -0.057,0.155 -0.204,0.25 -0.359,0.25 z m 35.482,-1.465 c -0.145,0 -0.282,-0.082 -0.348,-0.221 -0.09,-0.192 -0.008,-0.421 0.185,-0.511 0.568,-0.269 1.14,-0.553 1.7,-0.845 0.189,-0.099 0.421,-0.025 0.519,0.162 0.099,0.189 0.025,0.42 -0.163,0.519 -0.568,0.297 -1.151,0.587 -1.729,0.858 -0.053,0.026 -0.109,0.038 -0.164,0.038 z m -39.027,-0.03 c -0.054,0 -0.11,-0.012 -0.163,-0.037 -0.581,-0.274 -1.165,-0.564 -1.735,-0.865 -0.188,-0.098 -0.261,-0.33 -0.161,-0.518 0.098,-0.188 0.33,-0.26 0.518,-0.162 0.562,0.296 1.137,0.581 1.706,0.851 0.191,0.091 0.274,0.319 0.184,0.511 -0.067,0.139 -0.204,0.22 -0.349,0.22 z m 42.422,-1.747 c -0.133,0 -0.262,-0.068 -0.333,-0.191 -0.106,-0.184 -0.044,-0.419 0.141,-0.524 0.547,-0.316 1.094,-0.646 1.626,-0.984 0.179,-0.114 0.416,-0.061 0.529,0.117 0.114,0.18 0.061,0.417 -0.117,0.53 -0.541,0.344 -1.099,0.681 -1.653,1.003 -0.061,0.034 -0.129,0.049 -0.193,0.049 z m -45.825,-0.04 c -0.066,0 -0.132,-0.017 -0.191,-0.052 -0.558,-0.322 -1.114,-0.661 -1.656,-1.008 -0.179,-0.113 -0.231,-0.351 -0.117,-0.529 0.113,-0.179 0.352,-0.231 0.53,-0.117 0.532,0.339 1.081,0.673 1.627,0.99 0.184,0.106 0.247,0.342 0.14,0.524 -0.072,0.124 -0.2,0.192 -0.333,0.192 z m 49.061,-2.014 c -0.122,0 -0.242,-0.057 -0.315,-0.165 -0.122,-0.174 -0.078,-0.413 0.096,-0.534 0.52,-0.361 1.038,-0.738 1.539,-1.117 0.169,-0.129 0.409,-0.095 0.538,0.073 0.127,0.169 0.095,0.41 -0.075,0.538 -0.508,0.386 -1.035,0.769 -1.563,1.137 -0.067,0.046 -0.144,0.068 -0.22,0.068 z m -52.3,-0.05 c -0.077,0 -0.153,-0.022 -0.221,-0.07 -0.526,-0.367 -1.054,-0.751 -1.563,-1.141 -0.169,-0.129 -0.202,-0.37 -0.073,-0.538 0.128,-0.169 0.369,-0.201 0.538,-0.073 0.503,0.384 1.02,0.762 1.538,1.123 0.175,0.122 0.217,0.361 0.096,0.534 -0.076,0.107 -0.194,0.165 -0.315,0.165 z m 55.355,-2.268 c -0.11,0 -0.221,-0.047 -0.297,-0.139 -0.135,-0.163 -0.112,-0.406 0.052,-0.541 0.487,-0.404 0.973,-0.821 1.44,-1.242 0.158,-0.143 0.401,-0.129 0.544,0.028 0.141,0.157 0.128,0.4 -0.03,0.543 -0.476,0.427 -0.969,0.852 -1.465,1.264 -0.072,0.059 -0.158,0.087 -0.244,0.087 z m -58.411,-0.06 c -0.086,0 -0.173,-0.029 -0.245,-0.089 -0.494,-0.41 -0.986,-0.838 -1.463,-1.268 -0.157,-0.142 -0.17,-0.385 -0.028,-0.542 0.143,-0.157 0.387,-0.17 0.544,-0.027 0.468,0.423 0.952,0.842 1.439,1.247 0.163,0.135 0.185,0.376 0.05,0.54 -0.076,0.092 -0.187,0.139 -0.297,0.139 z m 61.264,-2.506 c -0.101,0 -0.198,-0.037 -0.274,-0.115 -0.148,-0.15 -0.146,-0.395 0.006,-0.542 0.452,-0.443 0.9,-0.9 1.334,-1.359 0.144,-0.154 0.388,-0.162 0.542,-0.017 0.154,0.146 0.162,0.389 0.017,0.543 -0.439,0.467 -0.896,0.932 -1.355,1.382 -0.076,0.073 -0.174,0.108 -0.27,0.108 z M 57.909,123.07 c -0.097,0 -0.194,-0.037 -0.269,-0.11 -0.459,-0.451 -0.914,-0.917 -1.353,-1.385 -0.145,-0.154 -0.137,-0.397 0.019,-0.542 0.153,-0.146 0.397,-0.138 0.542,0.018 0.431,0.46 0.879,0.917 1.33,1.361 0.152,0.148 0.153,0.393 0.005,0.543 -0.076,0.077 -0.175,0.115 -0.274,0.115 z m 66.741,-2.726 c -0.088,0 -0.178,-0.031 -0.251,-0.094 -0.16,-0.139 -0.178,-0.382 -0.039,-0.542 0.413,-0.478 0.822,-0.971 1.215,-1.466 0.133,-0.167 0.374,-0.192 0.54,-0.062 0.166,0.131 0.194,0.374 0.062,0.54 -0.4,0.503 -0.815,1.005 -1.236,1.489 -0.076,0.09 -0.183,0.135 -0.291,0.135 z m -69.365,-0.073 c -0.108,0 -0.215,-0.046 -0.291,-0.133 -0.42,-0.488 -0.834,-0.989 -1.232,-1.492 -0.131,-0.166 -0.103,-0.407 0.064,-0.54 0.167,-0.131 0.407,-0.103 0.539,0.063 0.391,0.493 0.799,0.986 1.211,1.467 0.139,0.161 0.121,0.403 -0.039,0.541 -0.074,0.062 -0.163,0.094 -0.252,0.094 z m 71.755,-2.934 c -0.078,0 -0.157,-0.023 -0.226,-0.074 -0.172,-0.125 -0.209,-0.364 -0.084,-0.536 0.371,-0.51 0.739,-1.036 1.09,-1.562 0.117,-0.178 0.355,-0.226 0.532,-0.107 0.176,0.117 0.223,0.355 0.106,0.533 -0.356,0.535 -0.73,1.07 -1.108,1.589 -0.075,0.102 -0.192,0.157 -0.31,0.157 z m -74.136,-0.074 c -0.118,0 -0.236,-0.055 -0.312,-0.158 -0.378,-0.521 -0.748,-1.055 -1.103,-1.588 -0.116,-0.178 -0.068,-0.415 0.108,-0.533 0.177,-0.118 0.415,-0.069 0.532,0.107 0.348,0.524 0.714,1.05 1.085,1.562 0.124,0.172 0.086,0.412 -0.086,0.536 -0.066,0.05 -0.145,0.074 -0.224,0.074 z m 76.267,-3.122 c -0.068,0 -0.137,-0.018 -0.198,-0.056 -0.183,-0.111 -0.239,-0.347 -0.13,-0.528 0.328,-0.538 0.65,-1.093 0.955,-1.648 0.103,-0.185 0.337,-0.253 0.523,-0.151 0.186,0.104 0.254,0.337 0.151,0.522 -0.312,0.565 -0.639,1.129 -0.973,1.677 -0.072,0.117 -0.198,0.184 -0.328,0.184 z m -78.386,-0.072 c -0.131,0 -0.258,-0.066 -0.329,-0.187 -0.333,-0.548 -0.657,-1.11 -0.966,-1.672 -0.102,-0.187 -0.035,-0.42 0.151,-0.521 0.186,-0.103 0.419,-0.035 0.521,0.151 0.304,0.552 0.622,1.104 0.95,1.645 0.109,0.183 0.051,0.418 -0.131,0.529 -0.06,0.038 -0.128,0.055 -0.196,0.055 z m 80.243,-3.294 c -0.059,0 -0.116,-0.013 -0.172,-0.04 -0.189,-0.095 -0.267,-0.325 -0.173,-0.516 0.283,-0.568 0.558,-1.147 0.814,-1.725 0.087,-0.193 0.314,-0.28 0.507,-0.193 0.193,0.086 0.28,0.312 0.194,0.508 -0.262,0.585 -0.54,1.175 -0.827,1.753 -0.066,0.135 -0.202,0.213 -0.343,0.213 z m -82.089,-0.064 c -0.142,0 -0.277,-0.078 -0.344,-0.213 -0.285,-0.575 -0.562,-1.163 -0.821,-1.748 -0.086,-0.193 0,-0.421 0.195,-0.507 0.191,-0.086 0.42,0.001 0.506,0.195 0.256,0.575 0.528,1.153 0.808,1.718 0.095,0.19 0.017,0.42 -0.174,0.515 -0.054,0.027 -0.112,0.04 -0.17,0.04 z m 83.657,-3.447 c -0.048,0 -0.096,-0.009 -0.143,-0.027 -0.196,-0.078 -0.293,-0.302 -0.215,-0.499 0.233,-0.588 0.458,-1.189 0.666,-1.787 0.07,-0.201 0.289,-0.307 0.489,-0.236 0.199,0.069 0.306,0.288 0.236,0.488 -0.213,0.608 -0.439,1.221 -0.678,1.818 -0.058,0.151 -0.203,0.243 -0.355,0.243 z m -85.211,-0.051 c -0.154,0 -0.299,-0.091 -0.358,-0.243 -0.236,-0.598 -0.463,-1.209 -0.673,-1.813 -0.07,-0.201 0.036,-0.419 0.236,-0.489 0.2,-0.069 0.42,0.036 0.489,0.236 0.206,0.596 0.429,1.195 0.661,1.784 0.078,0.198 -0.019,0.42 -0.215,0.498 -0.046,0.018 -0.094,0.027 -0.14,0.027 z m 86.477,-3.583 c -0.037,0 -0.074,-0.006 -0.111,-0.017 -0.203,-0.062 -0.318,-0.275 -0.257,-0.479 0.183,-0.606 0.354,-1.225 0.511,-1.833 0.054,-0.206 0.263,-0.33 0.468,-0.277 0.205,0.053 0.329,0.263 0.275,0.468 -0.157,0.62 -0.333,1.246 -0.518,1.864 -0.051,0.165 -0.203,0.274 -0.368,0.274 z m -87.738,-0.042 c -0.165,0 -0.317,-0.107 -0.367,-0.274 -0.185,-0.613 -0.359,-1.242 -0.518,-1.865 -0.053,-0.205 0.071,-0.413 0.277,-0.466 0.206,-0.053 0.415,0.072 0.467,0.277 0.156,0.612 0.327,1.229 0.509,1.833 0.062,0.203 -0.054,0.418 -0.257,0.478 -0.037,0.011 -0.073,0.017 -0.111,0.017 z m 88.689,-3.677 c -0.026,0 -0.053,-0.002 -0.079,-0.008 -0.207,-0.044 -0.341,-0.248 -0.297,-0.455 0.131,-0.617 0.251,-1.246 0.355,-1.87 0.035,-0.209 0.231,-0.35 0.442,-0.315 0.209,0.035 0.35,0.233 0.315,0.443 -0.107,0.634 -0.228,1.274 -0.36,1.9 -0.038,0.182 -0.197,0.305 -0.376,0.305 z M 45.176,99.869 c -0.178,0 -0.338,-0.124 -0.375,-0.306 -0.133,-0.628 -0.253,-1.268 -0.359,-1.902 -0.034,-0.209 0.107,-0.406 0.316,-0.441 0.21,-0.035 0.406,0.107 0.441,0.316 0.104,0.623 0.223,1.252 0.354,1.869 0.043,0.208 -0.089,0.412 -0.298,0.455 -0.026,0.005 -0.053,0.009 -0.079,0.009 z m 90.273,-3.742 c -0.015,0 -0.031,-10e-4 -0.048,-0.004 -0.211,-0.025 -0.359,-0.218 -0.334,-0.428 0.078,-0.626 0.146,-1.263 0.197,-1.894 0.018,-0.211 0.203,-0.37 0.414,-0.351 0.212,0.017 0.369,0.203 0.352,0.414 -0.053,0.642 -0.12,1.289 -0.2,1.925 -0.024,0.195 -0.189,0.338 -0.381,0.338 z M 44.544,96.084 c -0.191,0 -0.356,-0.142 -0.381,-0.337 -0.079,-0.638 -0.146,-1.285 -0.198,-1.926 -0.018,-0.211 0.141,-0.396 0.352,-0.413 0.213,-0.019 0.397,0.14 0.414,0.352 0.052,0.628 0.117,1.266 0.195,1.893 0.025,0.21 -0.123,0.402 -0.334,0.429 -0.017,0.001 -0.032,0.002 -0.048,0.002 z m 91.224,-3.782 c -0.007,0 -0.011,0 -0.018,0 -0.211,-0.008 -0.376,-0.188 -0.367,-0.399 0.025,-0.632 0.039,-1.272 0.039,-1.903 0,-0.212 0.172,-0.383 0.384,-0.383 0.212,0 0.385,0.171 0.385,0.383 0,0.642 -0.014,1.292 -0.04,1.936 -0.008,0.205 -0.179,0.366 -0.383,0.366 z M 44.23,92.259 c -0.205,0 -0.375,-0.162 -0.383,-0.368 -0.025,-0.624 -0.038,-1.261 -0.038,-1.892 v -0.044 c 0,-0.212 0.172,-0.383 0.384,-0.383 0.212,0 0.384,0.171 0.384,0.383 v 0.044 c 0,0.621 0.013,1.246 0.037,1.86 0.009,0.212 -0.156,0.39 -0.368,0.398 -0.004,0.002 -0.011,0.002 -0.016,0.002 z m 91.54,-3.707 c -0.205,0 -0.375,-0.161 -0.384,-0.367 -0.024,-0.634 -0.062,-1.272 -0.113,-1.901 -0.018,-0.211 0.14,-0.396 0.352,-0.413 0.211,-0.021 0.396,0.141 0.413,0.353 0.053,0.638 0.091,1.288 0.116,1.931 0.009,0.212 -0.156,0.391 -0.368,0.398 -0.007,-10e-4 -0.012,-10e-4 -0.016,-10e-4 z M 44.234,88.421 c -0.005,0 -0.012,0 -0.016,0 -0.213,-0.01 -0.377,-0.188 -0.368,-0.4 0.027,-0.643 0.068,-1.291 0.121,-1.932 0.019,-0.211 0.204,-0.368 0.415,-0.35 0.211,0.017 0.369,0.203 0.352,0.414 -0.054,0.63 -0.094,1.269 -0.12,1.899 -0.009,0.208 -0.179,0.369 -0.384,0.369 z m 91.226,-3.694 c -0.191,0 -0.357,-0.143 -0.382,-0.336 -0.077,-0.629 -0.169,-1.263 -0.271,-1.884 -0.036,-0.209 0.105,-0.407 0.315,-0.441 0.21,-0.035 0.407,0.106 0.441,0.315 0.105,0.632 0.198,1.276 0.276,1.916 0.026,0.21 -0.123,0.402 -0.333,0.428 -0.016,0.002 -0.03,0.002 -0.046,0.002 z m -90.904,-0.13 c -0.016,0 -0.032,-10e-4 -0.049,-0.003 -0.21,-0.026 -0.358,-0.22 -0.332,-0.43 0.08,-0.637 0.175,-1.282 0.282,-1.914 0.035,-0.209 0.232,-0.351 0.442,-0.316 0.209,0.036 0.351,0.234 0.313,0.444 -0.104,0.62 -0.197,1.254 -0.277,1.882 -0.023,0.195 -0.189,0.337 -0.379,0.337 z m 90.275,-3.655 c -0.178,0 -0.338,-0.125 -0.375,-0.307 -0.129,-0.616 -0.274,-1.239 -0.43,-1.854 -0.052,-0.205 0.072,-0.414 0.277,-0.467 0.206,-0.052 0.414,0.072 0.467,0.277 0.158,0.624 0.306,1.259 0.436,1.886 0.044,0.209 -0.09,0.412 -0.297,0.455 -0.026,0.007 -0.053,0.01 -0.078,0.01 z m -89.637,-0.13 c -0.026,0 -0.053,-0.002 -0.08,-0.007 -0.207,-0.045 -0.34,-0.249 -0.295,-0.456 0.133,-0.629 0.282,-1.263 0.442,-1.884 0.053,-0.206 0.261,-0.33 0.467,-0.277 0.205,0.053 0.329,0.263 0.276,0.468 -0.157,0.611 -0.304,1.234 -0.434,1.853 -0.038,0.179 -0.198,0.303 -0.376,0.303 z m 88.693,-3.589 c -0.166,0 -0.318,-0.108 -0.368,-0.274 -0.181,-0.606 -0.378,-1.216 -0.584,-1.811 -0.069,-0.201 0.036,-0.42 0.237,-0.489 0.2,-0.069 0.418,0.037 0.488,0.237 0.211,0.605 0.41,1.226 0.595,1.843 0.061,0.202 -0.055,0.417 -0.258,0.476 -0.036,0.012 -0.074,0.018 -0.11,0.018 z M 46.15,77.096 c -0.037,0 -0.075,-0.006 -0.111,-0.017 -0.203,-0.062 -0.317,-0.276 -0.256,-0.479 0.186,-0.616 0.388,-1.237 0.601,-1.846 0.07,-0.201 0.289,-0.307 0.489,-0.235 0.2,0.069 0.306,0.289 0.236,0.488 -0.209,0.599 -0.407,1.209 -0.591,1.815 -0.05,0.167 -0.203,0.274 -0.368,0.274 z m 86.482,-3.501 c -0.152,0 -0.299,-0.092 -0.357,-0.242 -0.23,-0.586 -0.478,-1.175 -0.732,-1.751 -0.086,-0.194 0.001,-0.422 0.195,-0.507 0.192,-0.086 0.42,0.001 0.506,0.195 0.26,0.586 0.511,1.185 0.746,1.78 0.078,0.197 -0.02,0.421 -0.218,0.497 -0.045,0.02 -0.094,0.028 -0.14,0.028 z M 47.42,73.463 c -0.047,0 -0.096,-0.009 -0.143,-0.027 -0.196,-0.079 -0.292,-0.302 -0.215,-0.499 0.239,-0.6 0.492,-1.199 0.755,-1.786 0.087,-0.193 0.314,-0.28 0.508,-0.193 0.193,0.086 0.28,0.314 0.193,0.506 -0.258,0.578 -0.508,1.168 -0.741,1.758 -0.06,0.15 -0.205,0.241 -0.357,0.241 z m 83.66,-3.367 c -0.142,0 -0.278,-0.079 -0.346,-0.214 -0.279,-0.563 -0.573,-1.131 -0.877,-1.685 -0.103,-0.186 -0.034,-0.419 0.151,-0.521 0.186,-0.102 0.419,-0.034 0.521,0.152 0.31,0.563 0.609,1.14 0.893,1.713 0.095,0.189 0.017,0.42 -0.174,0.515 -0.053,0.027 -0.111,0.04 -0.168,0.04 z M 48.99,69.953 c -0.057,0 -0.116,-0.014 -0.171,-0.041 -0.19,-0.095 -0.267,-0.325 -0.172,-0.516 0.287,-0.575 0.591,-1.152 0.901,-1.715 0.104,-0.186 0.337,-0.254 0.523,-0.15 0.185,0.104 0.253,0.336 0.15,0.521 -0.306,0.553 -0.605,1.121 -0.888,1.688 -0.066,0.135 -0.201,0.213 -0.343,0.213 z m 80.247,-3.218 c -0.129,0 -0.257,-0.065 -0.328,-0.185 -0.326,-0.54 -0.667,-1.08 -1.017,-1.606 -0.117,-0.177 -0.068,-0.415 0.107,-0.532 0.177,-0.118 0.415,-0.069 0.532,0.108 0.355,0.535 0.703,1.085 1.033,1.633 0.11,0.182 0.053,0.418 -0.129,0.527 -0.061,0.039 -0.13,0.055 -0.198,0.055 z M 50.851,66.588 c -0.068,0 -0.137,-0.018 -0.2,-0.055 -0.181,-0.11 -0.238,-0.347 -0.127,-0.528 0.333,-0.549 0.684,-1.099 1.041,-1.633 0.118,-0.177 0.357,-0.225 0.533,-0.106 0.177,0.117 0.224,0.356 0.105,0.533 -0.351,0.525 -0.695,1.065 -1.024,1.605 -0.073,0.119 -0.199,0.184 -0.328,0.184 z m 76.27,-3.048 c -0.12,0 -0.236,-0.055 -0.312,-0.158 -0.371,-0.512 -0.758,-1.023 -1.147,-1.517 -0.132,-0.167 -0.104,-0.408 0.062,-0.54 0.166,-0.132 0.408,-0.104 0.54,0.063 0.397,0.504 0.789,1.023 1.167,1.542 0.124,0.172 0.086,0.412 -0.086,0.536 -0.068,0.051 -0.147,0.074 -0.224,0.074 z M 52.984,63.396 c -0.079,0 -0.159,-0.024 -0.227,-0.074 -0.171,-0.126 -0.209,-0.366 -0.083,-0.536 0.378,-0.518 0.772,-1.036 1.175,-1.541 0.131,-0.166 0.374,-0.192 0.54,-0.06 0.165,0.132 0.192,0.373 0.06,0.539 -0.394,0.497 -0.783,1.007 -1.155,1.515 -0.074,0.102 -0.19,0.157 -0.31,0.157 z m 71.759,-2.866 c -0.108,0 -0.216,-0.045 -0.293,-0.134 -0.411,-0.479 -0.839,-0.956 -1.27,-1.416 -0.144,-0.155 -0.137,-0.398 0.019,-0.543 0.154,-0.145 0.397,-0.137 0.543,0.018 0.438,0.468 0.872,0.953 1.292,1.441 0.138,0.16 0.119,0.403 -0.042,0.542 -0.072,0.062 -0.161,0.092 -0.249,0.092 z M 55.377,60.391 c -0.09,0 -0.179,-0.031 -0.252,-0.094 -0.16,-0.139 -0.177,-0.381 -0.038,-0.541 0.42,-0.484 0.855,-0.968 1.298,-1.437 0.146,-0.154 0.39,-0.161 0.543,-0.016 0.154,0.146 0.162,0.388 0.017,0.543 -0.436,0.461 -0.864,0.937 -1.277,1.411 -0.077,0.09 -0.184,0.134 -0.291,0.134 z m 66.745,-2.663 c -0.098,0 -0.195,-0.036 -0.271,-0.109 -0.449,-0.443 -0.916,-0.883 -1.384,-1.307 -0.157,-0.143 -0.169,-0.385 -0.027,-0.542 0.142,-0.157 0.385,-0.17 0.542,-0.027 0.476,0.431 0.95,0.878 1.408,1.328 0.151,0.148 0.153,0.392 0.005,0.543 -0.076,0.075 -0.174,0.114 -0.273,0.114 z M 58.01,57.598 c -0.1,0 -0.199,-0.038 -0.274,-0.115 -0.148,-0.152 -0.146,-0.394 0.007,-0.543 0.46,-0.45 0.935,-0.895 1.412,-1.323 0.159,-0.142 0.401,-0.128 0.542,0.029 0.142,0.157 0.13,0.401 -0.028,0.543 -0.469,0.421 -0.937,0.858 -1.39,1.301 -0.076,0.072 -0.173,0.108 -0.269,0.108 z m 61.264,-2.447 c -0.086,0 -0.173,-0.029 -0.244,-0.088 -0.488,-0.406 -0.989,-0.806 -1.49,-1.188 -0.169,-0.129 -0.2,-0.37 -0.072,-0.538 0.129,-0.168 0.37,-0.201 0.538,-0.072 0.51,0.389 1.019,0.795 1.515,1.207 0.164,0.135 0.186,0.378 0.05,0.54 -0.077,0.093 -0.186,0.139 -0.297,0.139 z M 60.865,55.034 c -0.11,0 -0.22,-0.047 -0.296,-0.139 -0.135,-0.164 -0.112,-0.406 0.052,-0.541 0.497,-0.41 1.008,-0.813 1.517,-1.199 0.17,-0.128 0.411,-0.095 0.539,0.074 0.128,0.17 0.094,0.41 -0.075,0.537 -0.501,0.379 -1.003,0.776 -1.492,1.181 -0.072,0.059 -0.158,0.087 -0.245,0.087 z m 55.358,-2.212 c -0.076,0 -0.153,-0.022 -0.22,-0.07 -0.518,-0.361 -1.051,-0.718 -1.584,-1.059 -0.179,-0.114 -0.231,-0.353 -0.117,-0.531 0.114,-0.178 0.352,-0.231 0.53,-0.117 0.543,0.348 1.085,0.71 1.61,1.077 0.175,0.122 0.216,0.362 0.095,0.535 -0.074,0.108 -0.194,0.165 -0.314,0.165 z m -52.3,-0.102 c -0.121,0 -0.241,-0.059 -0.316,-0.165 -0.119,-0.175 -0.077,-0.414 0.098,-0.535 0.526,-0.365 1.069,-0.724 1.611,-1.068 0.178,-0.113 0.416,-0.06 0.529,0.119 0.113,0.18 0.061,0.417 -0.119,0.53 -0.532,0.337 -1.065,0.691 -1.584,1.051 -0.068,0.045 -0.144,0.068 -0.219,0.068 z m 49.062,-1.967 c -0.066,0 -0.133,-0.016 -0.193,-0.052 -0.548,-0.317 -1.108,-0.629 -1.668,-0.923 -0.188,-0.099 -0.26,-0.331 -0.161,-0.519 0.1,-0.188 0.331,-0.26 0.52,-0.161 0.568,0.3 1.139,0.614 1.695,0.938 0.185,0.107 0.246,0.343 0.139,0.525 -0.071,0.124 -0.2,0.192 -0.332,0.192 z M 67.161,50.669 c -0.134,0 -0.262,-0.07 -0.333,-0.192 -0.105,-0.184 -0.043,-0.419 0.141,-0.524 0.555,-0.32 1.125,-0.633 1.694,-0.93 0.188,-0.099 0.42,-0.025 0.518,0.162 0.098,0.188 0.025,0.42 -0.162,0.519 -0.56,0.292 -1.121,0.6 -1.666,0.914 -0.061,0.033 -0.127,0.051 -0.192,0.051 z m 42.422,-1.706 c -0.056,0 -0.11,-0.012 -0.164,-0.037 -0.574,-0.271 -1.159,-0.533 -1.741,-0.78 -0.195,-0.082 -0.286,-0.308 -0.203,-0.502 0.082,-0.195 0.308,-0.287 0.503,-0.205 0.592,0.25 1.188,0.517 1.771,0.793 0.191,0.091 0.272,0.319 0.183,0.512 -0.067,0.138 -0.204,0.219 -0.349,0.219 z M 70.557,48.896 c -0.144,0 -0.282,-0.081 -0.347,-0.221 -0.091,-0.192 -0.008,-0.421 0.185,-0.512 0.579,-0.271 1.173,-0.536 1.764,-0.783 0.195,-0.082 0.421,0.011 0.502,0.206 0.083,0.195 -0.009,0.42 -0.205,0.503 -0.58,0.243 -1.164,0.502 -1.735,0.771 -0.054,0.025 -0.109,0.036 -0.164,0.036 z m 35.484,-1.431 c -0.045,0 -0.09,-0.007 -0.134,-0.024 -0.595,-0.222 -1.2,-0.435 -1.802,-0.63 -0.202,-0.066 -0.312,-0.283 -0.246,-0.484 0.065,-0.202 0.281,-0.312 0.483,-0.247 0.612,0.201 1.229,0.417 1.832,0.642 0.199,0.075 0.3,0.296 0.226,0.495 -0.057,0.152 -0.205,0.248 -0.359,0.248 z M 74.087,47.417 c -0.156,0 -0.303,-0.097 -0.359,-0.25 -0.074,-0.2 0.026,-0.42 0.226,-0.494 0.602,-0.223 1.217,-0.436 1.829,-0.635 0.203,-0.063 0.418,0.046 0.483,0.248 0.065,0.202 -0.046,0.419 -0.246,0.483 -0.604,0.195 -1.208,0.405 -1.799,0.623 -0.045,0.018 -0.09,0.025 -0.134,0.025 z m 28.301,-1.145 c -0.035,0 -0.069,-0.005 -0.104,-0.015 -0.609,-0.171 -1.229,-0.33 -1.844,-0.475 -0.206,-0.049 -0.335,-0.255 -0.286,-0.461 0.049,-0.208 0.256,-0.335 0.462,-0.287 0.626,0.149 1.256,0.31 1.874,0.482 0.205,0.059 0.324,0.27 0.267,0.475 -0.047,0.171 -0.201,0.281 -0.369,0.281 z m -24.65,-0.035 c -0.168,0 -0.322,-0.112 -0.369,-0.281 -0.057,-0.206 0.063,-0.417 0.267,-0.473 0.618,-0.173 1.25,-0.333 1.877,-0.479 0.205,-0.047 0.412,0.081 0.46,0.287 0.048,0.207 -0.08,0.413 -0.287,0.461 -0.615,0.143 -1.236,0.301 -1.844,0.47 -0.034,0.01 -0.07,0.015 -0.104,0.015 z m 20.913,-0.843 c -0.023,0 -0.048,-0.002 -0.072,-0.007 -0.621,-0.119 -1.252,-0.226 -1.876,-0.318 -0.21,-0.031 -0.355,-0.227 -0.324,-0.437 0.032,-0.209 0.228,-0.353 0.438,-0.322 0.633,0.094 1.275,0.202 1.907,0.322 0.208,0.04 0.345,0.241 0.306,0.45 -0.036,0.184 -0.198,0.312 -0.379,0.312 z M 81.477,45.369 c -0.181,0 -0.342,-0.13 -0.377,-0.313 -0.039,-0.208 0.099,-0.409 0.307,-0.448 0.632,-0.119 1.274,-0.227 1.909,-0.317 0.21,-0.03 0.404,0.114 0.435,0.324 0.031,0.21 -0.114,0.405 -0.324,0.435 -0.625,0.091 -1.257,0.196 -1.878,0.313 -0.025,0.004 -0.049,0.006 -0.072,0.006 z m 13.378,-0.537 c -0.013,0 -0.026,-10e-4 -0.041,-0.002 -0.626,-0.067 -1.264,-0.12 -1.896,-0.161 -0.212,-0.013 -0.373,-0.194 -0.359,-0.407 0.014,-0.211 0.198,-0.373 0.408,-0.358 0.642,0.04 1.291,0.095 1.928,0.162 0.211,0.023 0.364,0.211 0.342,0.422 -0.021,0.197 -0.187,0.344 -0.382,0.344 z m -9.581,-0.014 c -0.195,0 -0.361,-0.148 -0.382,-0.345 -0.021,-0.211 0.133,-0.4 0.344,-0.421 0.635,-0.065 1.284,-0.118 1.928,-0.157 0.213,-0.014 0.395,0.147 0.407,0.359 0.013,0.212 -0.149,0.394 -0.36,0.407 -0.634,0.038 -1.271,0.09 -1.896,0.153 -0.014,0.003 -0.028,0.004 -0.041,0.004 z m 5.752,-0.229 c -0.003,0 -0.007,0 -0.01,0 -0.632,-0.014 -1.271,-0.015 -1.903,-0.003 -0.214,-0.003 -0.388,-0.164 -0.392,-0.377 -0.004,-0.212 0.164,-0.387 0.377,-0.391 0.644,-0.013 1.293,-0.012 1.936,0.003 0.211,0.004 0.379,0.18 0.375,0.392 -0.005,0.209 -0.176,0.376 -0.383,0.376 z"
   id="path2" />
		</g>
		<g
   id="g13">
			<g
   id="g3">
				<path
   fill="#333333"
   d="M 107.173,84.4 89.159,92.551 71.143,84.4 c 0,0 0,20.511 0,20.55 0,1.507 8.066,2.729 18.015,2.729 9.949,0 18.015,-1.223 18.015,-2.729 -0.001,-0.039 0,-20.55 0,-20.55 z"
   id="path3" />
			</g>
			<g
   id="g4">
				<path
   fill="#333333"
   d="m 107.172,84.4 c 0,0 0,1.847 0,4.429 L 89.155,96.975 71.143,88.824 c 0,-2.579 0,-4.424 0,-4.424 l 18.016,8.152 z"
   id="path4" />
			</g>
			<g
   id="g12">
				<g
   id="g5">
					<polygon
   fill="#757575"
   points="58.027,80.088 58.027,78.366 58.039,78.359 89.157,90.664 89.157,92.558 "
   id="polygon4" />
				</g>
				<g
   id="g6">
					<polygon
   fill="#333333"
   points="89.387,66.257 119.71,78.366 89.157,90.665 58.026,78.355 "
   id="polygon5" />
				</g>
				<g
   id="g9">
					<g
   id="g7">
						<rect
   x="117.483"
   y="79.597"
   fill="#333333"
   width="1.821"
   height="19.118999"
   id="rect6" />
					</g>
					<g
   id="g8">
						<path
   fill="#333333"
   d="m 121.277,99.4 c 0,-1.593 -1.289,-2.883 -2.883,-2.883 -1.592,0 -2.882,1.29 -2.882,2.883 0,1.59 1.29,2.884 2.882,2.884 1.594,0 2.883,-1.294 2.883,-2.884 z"
   id="path7" />
					</g>
				</g>
				<g
   id="g10">
					<path
   fill="#333333"
   d="m 120.562,100.845 h -3.639 c -0.609,1.627 -1.956,6.101 -1.191,12.232 h 0.001 c 0,0.367 1.346,0.665 3.005,0.665 1.66,0 3.006,-0.298 3.006,-0.665 0.764,-6.132 -0.576,-10.605 -1.182,-12.232 z"
   id="path9" />
				</g>
				<g
   id="g11">
					<polygon
   fill="#b2b2b2"
   points="119.71,80.088 119.71,78.366 119.696,78.359 89.158,90.664 89.157,90.664 89.158,92.558 "
   id="polygon10" />
				</g>
			</g>
		</g>
	</g>
	<g
   id="g123">
		<g
   id="g43">
			<g
   id="g23">
				<g
   id="XMLID_259_">
					<rect
   x="35.285"
   y="100.803"
   fill-rule="evenodd"
   clip-rule="evenodd"
   fill="#ff916e"
   width="27.497999"
   height="8.1859999"
   id="rect14" />
				</g>
				<g
   id="XMLID_257_">
					<g
   id="g15">
						<rect
   x="35.285"
   y="104.896"
   fill-rule="evenodd"
   clip-rule="evenodd"
   fill="#ff916e"
   width="27.497999"
   height="4.0929999"
   id="rect15" />
					</g>
				</g>
				<g
   id="g16">
					<rect
   x="58.153999"
   y="100.803"
   fill-rule="evenodd"
   clip-rule="evenodd"
   fill="#333333"
   width="1.027"
   height="8.1859999"
   id="rect16" />
				</g>
				<g
   id="g17">
					<rect
   x="53.257999"
   y="100.803"
   fill-rule="evenodd"
   clip-rule="evenodd"
   fill="#333333"
   width="1.026"
   height="8.1859999"
   id="rect17" />
				</g>
				<g
   id="g18">
					<rect
   x="37.161999"
   y="100.803"
   fill-rule="evenodd"
   clip-rule="evenodd"
   fill="#333333"
   width="1.027"
   height="8.1859999"
   id="rect18" />
				</g>
				<g
   id="g22">
					<g
   id="g19">
						<path
   fill-rule="evenodd"
   clip-rule="evenodd"
   fill="#333333"
   d="m 56.134,103.519 c -0.435,0 -0.787,-0.352 -0.787,-0.788 0,-0.435 0.353,-0.787 0.787,-0.787 0.436,0 0.788,0.353 0.788,0.787 0,0.435 -0.353,0.788 -0.788,0.788 z"
   id="path18" />
					</g>
					<g
   opacity="0.6"
   id="g20">
						<path
   fill-rule="evenodd"
   clip-rule="evenodd"
   fill="#333333"
   d="m 56.134,105.683 c -0.435,0 -0.787,-0.353 -0.787,-0.787 0,-0.436 0.353,-0.788 0.787,-0.788 0.436,0 0.788,0.353 0.788,0.788 0,0.434 -0.353,0.787 -0.788,0.787 z"
   id="path19" />
					</g>
					<g
   opacity="0.2"
   id="g21">
						<path
   fill-rule="evenodd"
   clip-rule="evenodd"
   fill="#333333"
   d="m 56.134,107.848 c -0.435,0 -0.787,-0.353 -0.787,-0.788 0,-0.434 0.353,-0.787 0.787,-0.787 0.436,0 0.788,0.353 0.788,0.787 0,0.435 -0.353,0.788 -0.788,0.788 z"
   id="path20" />
					</g>
				</g>
			</g>
			<g
   id="g30">
				<g
   id="XMLID_218_">
					
						<rect
   x="46.069"
   y="104.375"
   transform="matrix(0.0023,-1,1,0.0023,-70.6128,168.2944)"
   fill-rule="evenodd"
   clip-rule="evenodd"
   fill="#adebf6"
   width="5.9310002"
   height="30.32"
   id="rect23" />
				</g>
				<g
   id="g25">
					<g
   id="g24">
						<polygon
   fill-rule="evenodd"
   clip-rule="evenodd"
   fill="#adebf6"
   points="33.873,119.942 33.867,122.466 64.188,122.534 64.191,120.118 "
   id="polygon23" />
					</g>
				</g>
				<g
   id="g26">
					
						<rect
   x="57.465"
   y="119.118"
   transform="matrix(0.0025,-1,1,0.0025,-59.28,179.6949)"
   fill-rule="evenodd"
   clip-rule="evenodd"
   fill="#ff916e"
   width="5.9310002"
   height="0.88499999"
   id="rect25" />
				</g>
				<g
   id="g27">
					
						<rect
   x="54.401001"
   y="119.106"
   transform="matrix(0.0023,-1,1,0.0023,-62.3138,176.6418)"
   fill-rule="evenodd"
   clip-rule="evenodd"
   fill="#ff916e"
   width="5.9310002"
   height="0.88599998"
   id="rect26" />
				</g>
				<g
   id="g28">
					
						<rect
   x="53.433998"
   y="119.017"
   transform="matrix(0.7094,-0.7048,0.7048,0.7094,-68.5826,72.7914)"
   fill-rule="evenodd"
   clip-rule="evenodd"
   fill="#333333"
   width="1.0829999"
   height="1.0829999"
   id="rect27" />
				</g>
				<g
   id="g29">
					
						<rect
   x="51.603001"
   y="118.986"
   transform="matrix(0.708,-0.7062,0.7062,0.708,-69.1834,71.7222)"
   fill-rule="evenodd"
   clip-rule="evenodd"
   fill="#333333"
   width="1.0829999"
   height="1.082"
   id="rect28" />
				</g>
			</g>
			<g
   id="g36">
				<g
   id="XMLID_217_">
					
						<rect
   x="46.069"
   y="82.667999"
   transform="matrix(0.0013,-1,1,0.0013,-48.8581,146.7329)"
   fill-rule="evenodd"
   clip-rule="evenodd"
   fill="#b2b2b2"
   width="5.9299998"
   height="30.32"
   id="rect30" />
				</g>
				<g
   id="g31">
					<polygon
   fill-rule="evenodd"
   clip-rule="evenodd"
   fill="#b2b2b2"
   points="33.873,98.251 33.87,100.774 64.19,100.811 64.192,98.396 "
   id="polygon30" />
				</g>
				<g
   id="g32">
					
						<rect
   x="57.466"
   y="97.399002"
   transform="matrix(0.0013,-1,1,0.0013,-37.4906,158.1417)"
   fill-rule="evenodd"
   clip-rule="evenodd"
   fill="#adebf6"
   width="5.9299998"
   height="0.88499999"
   id="rect31" />
				</g>
				<g
   id="g33">
					
						<rect
   x="54.402"
   y="97.390999"
   transform="matrix(0.0011,-1,1,0.0011,-40.5328,155.0887)"
   fill-rule="evenodd"
   clip-rule="evenodd"
   fill="#adebf6"
   width="5.9310002"
   height="0.88499999"
   id="rect32" />
				</g>
				<g
   id="g34">
					
						<rect
   x="53.433998"
   y="97.305"
   transform="matrix(0.7075,-0.7067,0.7067,0.7075,-53.3604,66.7619)"
   fill-rule="evenodd"
   clip-rule="evenodd"
   fill="#333333"
   width="1.0829999"
   height="1.0829999"
   id="rect33" />
				</g>
				<g
   id="g35">
					
						<rect
   x="51.604"
   y="97.276001"
   transform="matrix(0.708,-0.7062,0.7062,0.708,-53.8519,65.3832)"
   fill-rule="evenodd"
   clip-rule="evenodd"
   fill="#333333"
   width="1.082"
   height="1.0829999"
   id="rect34" />
				</g>
			</g>
			<g
   id="g42">
				<g
   id="XMLID_216_">
					
						<rect
   x="45.257"
   y="99.684998"
   transform="rotate(90,49.0342,112.8023)"
   fill-rule="evenodd"
   clip-rule="evenodd"
   fill="#e0e0e0"
   width="7.5539999"
   height="26.233999"
   id="rect36" />
				</g>
				<g
   id="XMLID_215_">
					
						<rect
   x="47.183998"
   y="101.611"
   transform="rotate(90,49.03425,114.72855)"
   fill-rule="evenodd"
   clip-rule="evenodd"
   fill="#b2b2b2"
   width="3.701"
   height="26.233999"
   id="rect37" />
				</g>
				<g
   id="XMLID_214_">
					<rect
   x="51.188"
   y="109.025"
   fill-rule="evenodd"
   clip-rule="evenodd"
   fill="#ff916e"
   width="7.5739999"
   height="7.5539999"
   id="rect38" />
				</g>
				<g
   id="g41">
					<g
   id="g38">
						<path
   fill-rule="evenodd"
   clip-rule="evenodd"
   fill="#333333"
   d="m 52.625,111.425 c -0.436,0 -0.788,-0.353 -0.788,-0.787 0,-0.436 0.352,-0.788 0.788,-0.788 0.435,0 0.787,0.353 0.787,0.788 0,0.434 -0.352,0.787 -0.787,0.787 z"
   id="path38" />
					</g>
					<g
   opacity="0.6"
   id="g39">
						<path
   fill-rule="evenodd"
   clip-rule="evenodd"
   fill="#333333"
   d="m 52.625,113.59 c -0.436,0 -0.788,-0.353 -0.788,-0.788 0,-0.435 0.352,-0.787 0.788,-0.787 0.435,0 0.787,0.353 0.787,0.787 0,0.435 -0.352,0.788 -0.787,0.788 z"
   id="path39" />
					</g>
					<g
   opacity="0.2"
   id="g40">
						<path
   fill-rule="evenodd"
   clip-rule="evenodd"
   fill="#333333"
   d="m 52.625,115.755 c -0.436,0 -0.788,-0.353 -0.788,-0.788 0,-0.435 0.352,-0.787 0.788,-0.787 0.435,0 0.787,0.353 0.787,0.787 0,0.435 -0.352,0.788 -0.787,0.788 z"
   id="path40" />
					</g>
				</g>
				<g
   id="XMLID_213_">
					
						<rect
   x="54.928001"
   y="112.442"
   transform="rotate(90,58.063,112.8023)"
   fill-rule="evenodd"
   clip-rule="evenodd"
   fill="#ffffff"
   width="6.2709999"
   height="0.72000003"
   id="rect41" />
				</g>
				<g
   id="XMLID_212_">
					
						<rect
   x="54.587002"
   y="112.442"
   transform="rotate(90,56.7671,112.8017)"
   fill-rule="evenodd"
   clip-rule="evenodd"
   fill="#ffffff"
   width="4.3590002"
   height="0.72000003"
   id="rect42" />
				</g>
			</g>
		</g>
		<g
   id="g77">
			<g
   id="XMLID_181_">
				<g
   id="XMLID_210_">
					<rect
   x="73.074997"
   y="114.86"
   fill="#ffffff"
   width="26.604"
   height="26.604"
   id="rect43" />
				</g>
				<g
   id="XMLID_766_">
					<g
   id="XMLID_201_">
						<g
   id="XMLID_272_">
							
								<rect
   x="86.192001"
   y="127.976"
   transform="rotate(90,97.3657,128.1616)"
   fill="#d1d1d1"
   width="22.347"
   height="0.37200001"
   id="rect44" />
						</g>
						<g
   id="XMLID_793_">
							
								<rect
   x="84.361"
   y="127.975"
   transform="rotate(90,95.5342,128.1616)"
   fill="#d1d1d1"
   width="22.347"
   height="0.373"
   id="rect45" />
						</g>
						<g
   id="XMLID_271_">
							
								<rect
   x="82.528999"
   y="127.976"
   transform="rotate(90,93.7026,128.1616)"
   fill="#d1d1d1"
   width="22.347"
   height="0.37200001"
   id="rect46" />
						</g>
						<g
   id="XMLID_208_">
							
								<rect
   x="80.698997"
   y="127.975"
   transform="rotate(90,91.8721,128.1616)"
   fill="#d1d1d1"
   width="22.347"
   height="0.373"
   id="rect47" />
						</g>
						<g
   id="XMLID_206_">
							
								<rect
   x="78.867996"
   y="127.975"
   transform="rotate(90,90.0411,128.1616)"
   fill="#d1d1d1"
   width="22.347"
   height="0.373"
   id="rect48" />
						</g>
						<g
   id="XMLID_205_">
							
								<rect
   x="77.036003"
   y="127.976"
   transform="rotate(90,88.2095,128.1616)"
   fill="#d1d1d1"
   width="22.347"
   height="0.37200001"
   id="rect49" />
						</g>
						<g
   id="XMLID_270_">
							
								<rect
   x="73.374001"
   y="127.975"
   transform="rotate(90,84.5469,128.1616)"
   fill="#d1d1d1"
   width="22.347"
   height="0.373"
   id="rect50" />
						</g>
						<g
   id="XMLID_204_">
							
								<rect
   x="75.205002"
   y="127.976"
   transform="rotate(90,86.3784,128.1616)"
   fill="#d1d1d1"
   width="22.347"
   height="0.37200001"
   id="rect51" />
						</g>
						<g
   id="XMLID_786_">
							
								<rect
   x="71.542"
   y="127.976"
   transform="rotate(90,82.7154,128.1616)"
   fill="#d1d1d1"
   width="22.347"
   height="0.37200001"
   id="rect52" />
						</g>
						<g
   id="XMLID_269_">
							
								<rect
   x="69.709999"
   y="127.975"
   transform="rotate(90,80.8838,128.1616)"
   fill="#d1d1d1"
   width="22.347"
   height="0.373"
   id="rect53" />
						</g>
						<g
   id="XMLID_203_">
							
								<rect
   x="67.878998"
   y="127.975"
   transform="rotate(90,79.0528,128.1616)"
   fill="#d1d1d1"
   width="22.347"
   height="0.373"
   id="rect54" />
						</g>
						<g
   id="XMLID_783_">
							
								<rect
   x="66.047997"
   y="127.975"
   transform="rotate(90,77.2217,128.1616)"
   fill="#d1d1d1"
   width="22.347"
   height="0.373"
   id="rect55" />
						</g>
						<g
   id="XMLID_202_">
							
								<rect
   x="64.218002"
   y="127.976"
   transform="rotate(90,75.3911,128.1616)"
   fill="#d1d1d1"
   width="22.347"
   height="0.37200001"
   id="rect56" />
						</g>
					</g>
					<g
   id="XMLID_188_">
						<g
   id="XMLID_198_">
							
								<rect
   x="75.205002"
   y="138.963"
   transform="rotate(180,86.3784,139.14895)"
   fill="#d1d1d1"
   width="22.347"
   height="0.37200001"
   id="rect57" />
						</g>
						<g
   id="XMLID_197_">
							
								<rect
   x="75.205002"
   y="137.132"
   transform="rotate(180,86.3784,137.31835)"
   fill="#d1d1d1"
   width="22.347"
   height="0.373"
   id="rect58" />
						</g>
						<g
   id="XMLID_196_">
							
								<rect
   x="75.205002"
   y="135.30099"
   transform="rotate(180,86.3784,135.4873)"
   fill="#d1d1d1"
   width="22.347"
   height="0.373"
   id="rect59" />
						</g>
						<g
   id="XMLID_195_">
							
								<rect
   x="75.205002"
   y="133.47"
   transform="rotate(180,86.3784,133.6558)"
   fill="#d1d1d1"
   width="22.347"
   height="0.37200001"
   id="rect60" />
						</g>
						<g
   id="XMLID_776_">
							
								<rect
   x="75.205002"
   y="131.63901"
   transform="rotate(180,86.3784,131.8247)"
   fill="#d1d1d1"
   width="22.347"
   height="0.37200001"
   id="rect61" />
						</g>
						<g
   id="XMLID_194_">
							
								<rect
   x="75.205002"
   y="129.80701"
   transform="rotate(180,86.3784,129.9932)"
   fill="#d1d1d1"
   width="22.347"
   height="0.373"
   id="rect62" />
						</g>
						<g
   id="XMLID_193_">
							
								<rect
   x="75.205002"
   y="126.145"
   transform="rotate(180,86.3784,126.3306)"
   fill="#d1d1d1"
   width="22.347"
   height="0.37200001"
   id="rect63" />
						</g>
						<g
   id="XMLID_773_">
							
								<rect
   x="75.205002"
   y="127.976"
   transform="rotate(180,86.3784,128.16165)"
   fill="#d1d1d1"
   width="22.347"
   height="0.37200001"
   id="rect64" />
						</g>
						<g
   id="XMLID_772_">
							
								<rect
   x="75.205002"
   y="124.313"
   transform="rotate(180,86.3784,124.49905)"
   fill="#d1d1d1"
   width="22.347"
   height="0.373"
   id="rect65" />
						</g>
						<g
   id="XMLID_192_">
							
								<rect
   x="75.205002"
   y="122.481"
   transform="rotate(180,86.3784,122.668)"
   fill="#d1d1d1"
   width="22.347"
   height="0.373"
   id="rect66" />
						</g>
						<g
   id="XMLID_191_">
							
								<rect
   x="75.205002"
   y="120.651"
   transform="rotate(180,86.3784,120.8374)"
   fill="#d1d1d1"
   width="22.347"
   height="0.37200001"
   id="rect67" />
						</g>
						<g
   id="XMLID_190_">
							
								<rect
   x="75.205002"
   y="118.819"
   transform="rotate(180,86.3784,119.00585)"
   fill="#d1d1d1"
   width="22.347"
   height="0.373"
   id="rect68" />
						</g>
						<g
   id="XMLID_189_">
							
								<rect
   x="75.205002"
   y="116.988"
   transform="rotate(180,86.3784,117.1743)"
   fill="#d1d1d1"
   width="22.347"
   height="0.37200001"
   id="rect69" />
						</g>
					</g>
				</g>
				<g
   id="g75">
					<g
   id="XMLID_187_">
						<g
   id="g69">
							<polygon
   fill="#adebf6"
   points="87.28,134.537 87.28,131.077 83.619,131.077 83.619,127.614 80.035,123.876 80.452,123.478 84.194,127.383 84.194,130.502 87.856,130.502 87.856,135.112 80.53,135.112 80.53,135.995 91.231,135.995 91.231,136.57 79.957,136.57 79.957,134.537 "
   id="polygon69" />
						</g>
					</g>
					<g
   id="XMLID_186_">
						<path
   fill="#333333"
   d="m 80.243,124.338 c -0.424,0 -0.769,-0.344 -0.769,-0.768 0,-0.425 0.345,-0.768 0.769,-0.768 0.425,0 0.768,0.343 0.768,0.768 0,0.424 -0.343,0.768 -0.768,0.768 z"
   id="path69" />
					</g>
					<g
   id="XMLID_761_">
						<path
   fill="#333333"
   d="m 83.905,128.32 c -0.424,0 -0.768,-0.343 -0.768,-0.768 0,-0.425 0.344,-0.768 0.768,-0.768 0.425,0 0.77,0.343 0.77,0.768 0,0.425 -0.345,0.768 -0.77,0.768 z"
   id="path70" />
					</g>
					<g
   id="XMLID_185_">
						<path
   fill="#333333"
   d="m 83.905,131.508 c -0.424,0 -0.768,-0.344 -0.768,-0.768 0,-0.425 0.344,-0.768 0.768,-0.768 0.425,0 0.77,0.343 0.77,0.768 0,0.424 -0.345,0.768 -0.77,0.768 z"
   id="path71" />
					</g>
					<g
   id="XMLID_184_">
						<path
   fill="#333333"
   d="m 87.569,131.508 c -0.425,0 -0.769,-0.344 -0.769,-0.768 0,-0.425 0.344,-0.768 0.769,-0.768 0.424,0 0.768,0.343 0.768,0.768 0,0.424 -0.344,0.768 -0.768,0.768 z"
   id="path72" />
					</g>
					<g
   id="XMLID_183_">
						<path
   fill="#333333"
   d="m 87.569,135.498 c -0.425,0 -0.769,-0.343 -0.769,-0.768 0,-0.424 0.344,-0.768 0.769,-0.768 0.424,0 0.768,0.344 0.768,0.768 0,0.425 -0.344,0.768 -0.768,0.768 z"
   id="path73" />
					</g>
					<g
   id="XMLID_182_">
						<path
   fill="#333333"
   d="m 80.243,135.498 c -0.424,0 -0.769,-0.343 -0.769,-0.768 0,-0.424 0.345,-0.768 0.769,-0.768 0.425,0 0.768,0.344 0.768,0.768 0,0.425 -0.343,0.768 -0.768,0.768 z"
   id="path74" />
					</g>
					<g
   id="XMLID_266_">
						<path
   fill="#333333"
   d="m 80.243,137.184 c -0.424,0 -0.769,-0.343 -0.769,-0.768 0,-0.424 0.345,-0.768 0.769,-0.768 0.425,0 0.768,0.344 0.768,0.768 0,0.425 -0.343,0.768 -0.768,0.768 z"
   id="path75" />
					</g>
					<g
   id="XMLID_755_">
						<circle
   fill="#333333"
   cx="91.231003"
   cy="136.416"
   r="0.76800001"
   id="circle75" />
					</g>
				</g>
			</g>
			<g
   id="XMLID_172_">
				<g
   id="XMLID_178_">
					<polygon
   fill-rule="evenodd"
   clip-rule="evenodd"
   fill="#ff916e"
   points="86.879,113.565 99.97,126.771 98.06,128.692 84.971,115.487 "
   id="polygon75" />
				</g>
				<g
   id="XMLID_752_">
					<polygon
   fill-rule="evenodd"
   clip-rule="evenodd"
   fill="#dd5a3c"
   points="86.266,114.185 99.355,127.39 98.675,128.073 85.586,114.869 "
   id="polygon76" />
				</g>
				<g
   id="XMLID_173_">
					<g
   id="XMLID_264_">
						<path
   fill-rule="evenodd"
   clip-rule="evenodd"
   fill="#ffffff"
   d="m 100.563,129.271 c 0,0 -0.562,-2.469 -0.594,-2.5 v 0 0 0 c -0.09,-0.09 -0.309,-0.018 -0.487,0.163 -0.164,0.165 -0.232,0.358 -0.172,0.46 -0.102,-0.06 -0.295,0.01 -0.459,0.174 -0.164,0.166 -0.231,0.359 -0.172,0.461 -0.102,-0.06 -0.295,0.009 -0.459,0.175 -0.179,0.181 -0.251,0.398 -0.16,0.489 0.032,0.03 2.503,0.578 2.503,0.578 z"
   id="path76" />
					</g>
					<g
   id="XMLID_176_">
						<polygon
   fill-rule="evenodd"
   clip-rule="evenodd"
   fill="#333333"
   points="100.563,129.271 100.28,128.077 99.369,128.994 "
   id="polygon77" />
					</g>
				</g>
			</g>
		</g>
		<g
   id="g103">
			<g
   id="g78">
				<path
   fill="#757575"
   d="m 81.007,58.825 c 0,2.273 -1.843,4.115 -4.116,4.115 H 64.608 c -2.273,0 -4.116,-1.842 -4.116,-4.115 V 40.688 c 0,-2.273 1.844,-4.115 4.116,-4.115 H 76.89 c 2.273,0 4.116,1.842 4.116,4.115 v 18.137 z"
   id="path77" />
			</g>
			<g
   id="g79">
				<rect
   x="62.181999"
   y="38.779999"
   fill="#ffffff"
   width="17.024"
   height="3.5220001"
   id="rect78" />
			</g>
			<g
   id="g80">
				<rect
   x="62.181999"
   y="45.34"
   fill="#333333"
   width="2.5610001"
   height="2.5610001"
   id="rect79" />
			</g>
			<g
   id="g81">
				<rect
   x="62.181999"
   y="48.508999"
   fill="#333333"
   width="2.5610001"
   height="2.559"
   id="rect80" />
			</g>
			<g
   id="g82">
				<rect
   x="62.181999"
   y="51.676998"
   fill="#333333"
   width="2.5610001"
   height="2.5599999"
   id="rect81" />
			</g>
			<g
   id="g83">
				<rect
   x="62.181999"
   y="54.845001"
   fill="#333333"
   width="2.5610001"
   height="2.5599999"
   id="rect82" />
			</g>
			<g
   id="g84">
				<rect
   x="65.349998"
   y="45.34"
   fill="#333333"
   width="2.5599999"
   height="2.5610001"
   id="rect83" />
			</g>
			<g
   id="g85">
				<rect
   x="65.349998"
   y="48.508999"
   fill="#333333"
   width="2.5599999"
   height="2.559"
   id="rect84" />
			</g>
			<g
   id="g86">
				<rect
   x="65.349998"
   y="51.676998"
   fill="#333333"
   width="2.5599999"
   height="2.5599999"
   id="rect85" />
			</g>
			<g
   id="g87">
				<rect
   x="65.349998"
   y="54.845001"
   fill="#333333"
   width="2.5599999"
   height="2.5599999"
   id="rect86" />
			</g>
			<g
   id="g88">
				<rect
   x="68.421997"
   y="45.34"
   fill="#333333"
   width="2.5610001"
   height="2.5610001"
   id="rect87" />
			</g>
			<g
   id="g89">
				<rect
   x="68.421997"
   y="48.508999"
   fill="#333333"
   width="2.5610001"
   height="2.559"
   id="rect88" />
			</g>
			<g
   id="g90">
				<rect
   x="68.421997"
   y="51.676998"
   fill="#333333"
   width="2.5610001"
   height="2.5599999"
   id="rect89" />
			</g>
			<g
   id="g91">
				<rect
   x="73.290001"
   y="51.676998"
   fill="#333333"
   width="2.5610001"
   height="2.5599999"
   id="rect90" />
			</g>
			<g
   id="g92">
				<rect
   x="76.362"
   y="51.676998"
   fill="#333333"
   width="2.559"
   height="2.5599999"
   id="rect91" />
			</g>
			<g
   id="g93">
				<rect
   x="73.290001"
   y="48.508999"
   fill="#333333"
   width="2.5610001"
   height="2.559"
   id="rect92" />
			</g>
			<g
   id="g94">
				<rect
   x="76.362"
   y="48.508999"
   fill="#333333"
   width="2.559"
   height="2.559"
   id="rect93" />
			</g>
			<g
   id="g95">
				<rect
   x="73.290001"
   y="45.34"
   fill="#333333"
   width="2.5610001"
   height="2.5610001"
   id="rect94" />
			</g>
			<g
   id="g96">
				<rect
   x="76.362"
   y="45.34"
   fill="#333333"
   width="2.559"
   height="2.5610001"
   id="rect95" />
			</g>
			<g
   id="g97">
				<rect
   x="68.421997"
   y="54.845001"
   fill="#333333"
   width="2.5610001"
   height="2.5599999"
   id="rect96" />
			</g>
			<g
   id="g98">
				<rect
   x="62.181999"
   y="57.949001"
   fill="#333333"
   width="2.5610001"
   height="2.5599999"
   id="rect97" />
			</g>
			<g
   id="g99">
				<rect
   x="65.349998"
   y="57.949001"
   fill="#333333"
   width="2.5599999"
   height="2.5599999"
   id="rect98" />
			</g>
			<g
   id="g100">
				<rect
   x="68.421997"
   y="57.949001"
   fill="#333333"
   width="2.5610001"
   height="2.5599999"
   id="rect99" />
			</g>
			<g
   id="g101">
				<rect
   x="73.125"
   y="57.917"
   fill="#ff916e"
   width="5.9619999"
   height="2.5599999"
   id="rect100" />
			</g>
			<g
   id="g102">
				<rect
   x="73.125"
   y="54.557999"
   fill="#adebf6"
   width="5.9619999"
   height="2.5599999"
   id="rect101" />
			</g>
		</g>
		<g
   id="g106">
			<g
   id="g104">
				<path
   fill="#b2b2b2"
   d="m 61.659,68.835 c -2.461,0 -4.774,-0.957 -6.515,-2.697 -1.739,-1.739 -2.697,-4.054 -2.697,-6.514 0,-2.46 0.958,-4.773 2.697,-6.514 1.74,-1.739 4.054,-2.698 6.515,-2.698 2.461,0 4.773,0.959 6.514,2.698 1.739,1.74 2.698,4.054 2.698,6.514 0,2.46 -0.959,4.774 -2.698,6.514 -1.74,1.74 -4.053,2.697 -6.514,2.697 z m 0,-15.734 c -1.742,0 -3.381,0.679 -4.614,1.911 -1.231,1.231 -1.909,2.87 -1.909,4.612 0,1.743 0.679,3.381 1.909,4.613 1.233,1.232 2.872,1.91 4.614,1.91 1.741,0 3.38,-0.678 4.613,-1.91 1.23,-1.233 1.909,-2.87 1.909,-4.613 0,-1.742 -0.679,-3.381 -1.909,-4.612 -1.233,-1.233 -2.872,-1.911 -4.613,-1.911 z"
   id="path103" />
			</g>
			<g
   id="g105">
				
					<rect
   x="42.479"
   y="69.484001"
   transform="matrix(0.7069,-0.7073,0.7073,0.7069,-35.3086,56.4445)"
   fill="#b2b2b2"
   width="15.952"
   height="2.688"
   id="rect104" />
			</g>
		</g>
		<g
   id="g111">
			<g
   id="g107">
				<path
   fill="#ffffff"
   d="m 109.098,62.501 v 0.919 c 0,0.508 0.401,0.919 0.896,0.919 h 35.239 c 0.497,0 0.898,-0.411 0.898,-0.919 v -0.919 z"
   id="path106" />
			</g>
			<g
   id="g108">
				<path
   fill="#686868"
   d="M 144.418,62.501 V 43.06 c 0,-1.082 -0.856,-1.958 -1.913,-1.958 h -29.782 c -1.056,0 -1.913,0.876 -1.913,1.958 v 19.441 z"
   id="path107" />
			</g>
			<g
   id="g109">
				<rect
   x="112.479"
   y="42.957001"
   fill="#e6e6e6"
   width="30.271"
   height="18.041"
   id="rect108" />
			</g>
			<g
   id="g110">
				<path
   fill="#ffffff"
   d="m 128.107,42.038 c 0,0.279 -0.221,0.505 -0.493,0.505 -0.272,0 -0.493,-0.226 -0.493,-0.505 0,-0.278 0.221,-0.506 0.493,-0.506 0.273,0 0.493,0.228 0.493,0.506 z"
   id="path109" />
			</g>
		</g>
		<g
   id="XMLID_170_">
			<g
   id="XMLID_275_">
				<g
   id="XMLID_277_">
					<path
   fill="#ffffff"
   d="m 116.407,143.982 c -1.499,0 -5.52,0.018 -7.538,-1.025 -4.448,-2.303 -9.517,0.431 -9.562,3.879 h 15.45 z"
   id="path111" />
				</g>
			</g>
			<g
   id="XMLID_273_">
				<g
   id="XMLID_274_">
					<path
   fill="#ffffff"
   d="m 84.721,143.982 c 1.499,0 5.519,0.018 7.537,-1.025 4.449,-2.303 9.517,0.431 9.562,3.879 H 86.37 Z"
   id="path112" />
				</g>
			</g>
			<g
   id="XMLID_171_">
				<path
   fill="#333333"
   d="m 115.423,146.292 v 1.33 H 101.9 c -0.068,0.198 -0.256,0.341 -0.476,0.341 h -1.92 c -0.223,0 -0.41,-0.143 -0.477,-0.341 H 85.506 v -1.33 h 13.497 c -0.001,0.014 -0.002,0.027 -0.002,0.041 0,0.277 0.227,0.503 0.504,0.503 h 1.92 c 0.277,0 0.502,-0.226 0.502,-0.503 0,-0.014 -0.001,-0.027 -0.002,-0.041 z"
   id="path113" />
			</g>
		</g>
		<g
   id="g122">
			<g
   id="g114">
				<path
   fill="#333333"
   d="m 141.124,104.328 h -12.667 c -0.511,0 -0.924,0.413 -0.924,0.925 v 16.675 c 0,0.51 0.413,0.923 0.924,0.923 h 12.667 c 0.509,0 0.923,-0.413 0.923,-0.923 v -16.675 c 0,-0.512 -0.414,-0.925 -0.923,-0.925 z"
   id="path114" />
			</g>
			<g
   id="g115">
				<path
   fill="#ffffff"
   d="m 134.79,122.38 c -0.205,0 -0.372,-0.166 -0.372,-0.37 0,-0.207 0.167,-0.372 0.372,-0.372 0.206,0 0.37,0.165 0.37,0.372 0,0.204 -0.164,0.37 -0.37,0.37 z"
   id="path115" />
			</g>
			<g
   id="g116">
				<rect
   x="129.181"
   y="106.119"
   fill="#ffffff"
   width="11.219"
   height="14.941"
   id="rect115" />
			</g>
			<g
   id="g121">
				<g
   id="g120">
					<g
   id="g117">
						<path
   fill="#ff916e"
   d="m 134.498,113.881 v -4.774 c -2.338,0.156 -4.19,2.098 -4.19,4.476 0,2.479 2.01,4.49 4.489,4.49 2.38,0 4.322,-1.851 4.476,-4.191 h -4.775 z"
   id="path116" />
					</g>
					<g
   id="g118">
						<path
   fill="#ffdb76"
   d="m 135.271,113.283 h 3.707 c -0.102,-1.436 -0.931,-2.672 -2.117,-3.347 z"
   id="path117" />
					</g>
					<g
   id="g119">
						<path
   fill="#adebf6"
   d="m 135.097,109.402 v 2.853 l 1.226,-2.579 c -0.393,-0.154 -0.803,-0.245 -1.226,-0.274 z"
   id="path118" />
					</g>
				</g>
			</g>
		</g>
	</g>
</g>
</svg>
